<svg width="1811" height="921" viewBox="0 0 1811 921" fill="none" xmlns="http://www.w3.org/2000/svg">
<path d="M0 377.172H1090.41L1265 480.172H174.59L0 377.172Z" fill="#D3A203"/>
<path d="M1090.38 0L1265.36 103.263V480.022L1090.38 376.759V0Z" fill="#B98E02"/>
<path d="M0 0H1090.72V377.108H0V0Z" fill="#FFC300"/>
<path d="M238.395 101.373V165.579C238.395 173.82 231.873 180.687 223.634 180.687H191.025C182.786 180.687 175.921 173.82 175.921 165.579V101.373H161.847V276.138H175.921V211.588C175.921 203.348 182.786 196.481 191.025 196.481H223.634C231.873 196.481 238.395 203.348 238.395 211.588V276.138C238.395 310.473 210.591 338.628 175.921 338.628H161.847C127.178 338.628 99.374 310.473 99.374 276.138V101.373C99.374 66.6942 127.178 38.8828 161.847 38.8828H175.921C210.591 38.8828 238.395 66.6942 238.395 101.373Z" fill="#C25100"/>
<path d="M311.689 39.9129H326.106C360.432 39.9129 388.579 68.0676 388.579 102.403V322.147C388.579 330.388 381.714 337.255 373.476 337.255H340.866C332.628 337.255 326.106 330.388 326.106 322.147V262.061H311.689V322.147C311.689 330.388 305.167 337.255 296.929 337.255H264.319C256.081 337.255 249.215 330.388 249.215 322.147V102.403C249.215 68.0676 277.363 39.9129 311.689 39.9129ZM311.689 199.571H326.106V102.403H311.689V199.571Z" fill="#C25100"/>
<path d="M522.615 196.137C539.091 207.468 539.091 226.009 539.091 237.34V322.147C539.091 330.388 532.226 337.255 523.988 337.255H491.721C483.14 337.255 476.618 330.388 476.618 322.147V227.382H462.201V322.147C462.201 330.388 455.679 337.255 447.44 337.255H414.831C406.592 337.255 399.727 330.388 399.727 322.147V55.0203C399.727 46.7799 406.592 39.9129 414.831 39.9129H476.618C510.944 39.9129 539.091 68.0676 539.091 102.403V158.712C539.091 170.043 538.405 185.15 522.615 196.137ZM476.618 164.893V102.403H462.201V164.893H476.618Z" fill="#C25100"/>
<path d="M690.609 229.786V274.765C690.609 309.1 662.461 337.255 628.135 337.255H566.348C558.11 337.255 551.245 330.388 551.245 322.147V55.0203C551.245 46.7799 558.11 39.9129 566.348 39.9129H625.732C660.058 39.9129 687.863 68.0676 687.863 102.403V152.189C687.863 163.519 686.833 178.283 671.729 188.584C688.206 200.258 690.609 218.455 690.609 229.786ZM625.389 102.403H613.718V157.339H625.389V102.403ZM628.135 274.765V219.829H613.718V274.765H628.135Z" fill="#C25100"/>
<path d="M764.23 38.8828H778.647C812.973 38.8828 841.12 66.6942 841.12 101.373V276.138C841.12 310.473 812.973 338.628 778.647 338.628H764.23C729.904 338.628 701.757 310.473 701.757 276.138V101.373C701.757 66.6942 729.904 38.8828 764.23 38.8828ZM778.647 276.138V101.373H764.23V276.138H778.647Z" fill="#C25100"/>
<path d="M852.268 322.147V102.403C852.268 68.0676 880.072 39.9129 914.742 39.9129H928.815C963.485 39.9129 991.289 68.0676 991.289 102.403V322.147C991.289 330.388 984.767 337.255 976.185 337.255H943.919C935.681 337.255 928.815 330.388 928.815 322.147V102.403H914.742V322.147C914.742 330.388 907.877 337.255 899.638 337.255H867.029C858.79 337.255 852.268 330.388 852.268 322.147Z" fill="#C25100"/>
<path d="M1635.38 440.703L1810.36 543.966V920.725L1635.38 817.462V440.703Z" fill="#B98E02"/>
<path d="M545 817.461H1635.72L1810.36 920.724H719.64L545 817.461Z" fill="#D3A203"/>
<path d="M545 440.703H1635.72V817.811H545V440.703Z" fill="#FFC300"/>
<path d="M751.836 629.152C771.749 641.858 783.765 664.18 783.765 687.532V762.74C783.765 770.982 776.899 777.85 768.659 777.85H736.043C727.803 777.85 721.28 770.982 721.28 762.74V660.402H706.86V762.74C706.86 770.982 700.337 777.85 692.097 777.85H659.481C651.242 777.85 644.375 770.982 644.375 762.74V495.563C644.375 487.321 651.242 480.453 659.481 480.453H692.097C700.337 480.453 706.86 487.321 706.86 495.563V597.901H721.28V495.563C721.28 487.321 727.803 480.453 736.043 480.453H768.659C776.899 480.453 783.765 487.321 783.765 495.563V570.428C783.765 594.123 771.749 616.102 751.836 629.152Z" fill="#C25100"/>
<path d="M810.021 777.85C801.782 777.85 794.915 770.982 794.915 762.74V495.563C794.915 487.321 801.782 480.453 810.021 480.453H842.637C850.877 480.453 857.4 487.321 857.4 495.563V762.74C857.4 770.982 850.877 777.85 842.637 777.85H810.021Z" fill="#C25100"/>
<path d="M868.341 762.74V542.955C868.341 508.613 896.15 480.453 930.826 480.453H944.903C979.578 480.453 1007.39 508.613 1007.39 542.955V762.74C1007.39 770.982 1000.86 777.85 992.281 777.85H960.009C951.769 777.85 944.903 770.982 944.903 762.74V542.955H930.826V762.74C930.826 770.982 923.96 777.85 915.72 777.85H883.104C874.864 777.85 868.341 770.982 868.341 762.74Z" fill="#C25100"/>
<path d="M1018.21 762.74V542.955C1018.21 508.613 1046.02 480.453 1080.7 480.453H1094.77C1129.45 480.453 1157.26 508.613 1157.26 542.955V762.74C1157.26 770.982 1150.73 777.85 1142.15 777.85H1109.88C1101.64 777.85 1094.77 770.982 1094.77 762.74V542.955H1080.7V762.74C1080.7 770.982 1073.83 777.85 1065.59 777.85H1032.97C1024.73 777.85 1018.21 770.982 1018.21 762.74Z" fill="#C25100"/>
<path d="M1312.75 542.955V569.054C1312.75 577.296 1305.89 584.164 1297.65 584.164H1265.05C1256.81 584.164 1250.29 577.296 1250.29 569.054V542.955H1235.88V597.901H1250.29C1284.61 597.901 1312.75 626.061 1312.75 660.402V715.349C1312.75 749.69 1284.61 777.85 1250.29 777.85H1235.88C1201.56 777.85 1173.42 749.69 1173.42 715.349V689.593C1173.42 681.351 1180.28 674.482 1188.52 674.482H1221.12C1229.36 674.482 1235.88 681.351 1235.88 689.593V715.349H1250.29V660.402H1235.88C1201.56 660.402 1173.42 632.586 1173.42 597.901V542.955C1173.42 508.613 1201.56 480.453 1235.88 480.453H1250.29C1284.61 480.453 1312.75 508.613 1312.75 542.955Z" fill="#C25100"/>
<path d="M1339 777.85C1330.76 777.85 1323.9 770.982 1323.9 762.74V495.563C1323.9 487.321 1330.76 480.453 1339 480.453H1371.6C1379.84 480.453 1386.36 487.321 1386.36 495.563V762.74C1386.36 770.982 1379.84 777.85 1371.6 777.85H1339Z" fill="#C25100"/>
<path d="M1397.3 762.74V542.955C1397.3 508.613 1425.1 480.453 1459.76 480.453H1473.83C1508.49 480.453 1536.29 508.613 1536.29 542.955V762.74C1536.29 770.982 1529.77 777.85 1521.19 777.85H1488.93C1480.69 777.85 1473.83 770.982 1473.83 762.74V542.955H1459.76V762.74C1459.76 770.982 1452.89 777.85 1444.66 777.85H1412.05C1403.82 777.85 1397.3 770.982 1397.3 762.74Z" fill="#C25100"/>
</svg>
